<svg data-name="Layer 1" xmlns="http://www.w3.org/2000/svg" viewBox="0 0 242.11 41.8"><defs><style>.cls-1{fill:#18211f;}</style></defs><title>standard-logo</title><path class="cls-1" d="M113.71,100.8V95.32h4.52v1h-3.32v1.11h2v1h-2v2.3Z" transform="translate(-33.72 -59.17)"/><path class="cls-1" d="M126.35,95.32v3.51c0,1.37-1,2.14-2.51,2.14a2.2,2.2,0,0,1-2.49-2.14V95.32h1.21v3.51a1.14,1.14,0,0,0,1.28,1.11c.75,0,1.3-.39,1.3-1.11V95.32Z" transform="translate(-33.72 -59.17)"/><path class="cls-1" d="M130.16,100.8V95.32h3a2.12,2.12,0,0,1,1.64.6,1.62,1.62,0,0,1,.46,1.13,1.69,1.69,0,0,1-1.11,1.55l1.28,2.2H134.1l-1.11-2h-1.63v2Zm1.2-4.46v1.43h2a.74.74,0,0,0,.77-.72.67.67,0,0,0-.2-.48.8.8,0,0,0-.65-.23Z" transform="translate(-33.72 -59.17)"/><path class="cls-1" d="M143.93,95.32v5.48h-1l-2.79-3.39h0v3.39h-1.2V95.32h1l2.79,3.4h0v-3.4Z" transform="translate(-33.72 -59.17)"/><path class="cls-1" d="M147.84,100.8V95.32H149v5.48Z" transform="translate(-33.72 -59.17)"/><path class="cls-1" d="M152.3,95.32h5.17v1h-2v4.44h-1.2V96.36h-2Z" transform="translate(-33.72 -59.17)"/><path class="cls-1" d="M165.63,95.32v3.51c0,1.37-1,2.14-2.5,2.14a2.21,2.21,0,0,1-2.5-2.14V95.32h1.21v3.51a1.15,1.15,0,0,0,1.29,1.11c.74,0,1.3-.39,1.3-1.11V95.32Z" transform="translate(-33.72 -59.17)"/><path class="cls-1" d="M169.44,100.8V95.32h3a2.16,2.16,0,0,1,1.65.6,1.66,1.66,0,0,1,.45,1.13,1.69,1.69,0,0,1-1.11,1.55l1.28,2.2h-1.37l-1.11-2h-1.63v2Zm1.2-4.46v1.43h2a.73.73,0,0,0,.76-.72.71.71,0,0,0-.19-.48.83.83,0,0,0-.66-.23Z" transform="translate(-33.72 -59.17)"/><path class="cls-1" d="M181.39,98.46h-2v1.31h3.56v1h-4.76V95.32h4.56v1h-3.36v1.07h2Z" transform="translate(-33.72 -59.17)"/><path class="cls-1" d="M33.72,80.22v-6h1c.81,4.81,3.44,6.53,6.72,6.53,2.41,0,4.45-.9,4.45-3.91,0-2-.91-3-3.51-4.13L38.5,71C35.56,69.74,34,68,34,65.33c0-3.56,2.66-6,7.63-6a13.54,13.54,0,0,1,6.13,1.4v5.63h-.9c-.88-4.22-3.13-5.53-6-5.53s-4.34,1.28-4.34,3.44c0,1.5.81,2.78,3.56,3.91l4,1.72c3,1.31,4.41,3,4.41,5.82,0,3.78-2.78,6.57-7.6,6.57A13.93,13.93,0,0,1,33.72,80.22Z" transform="translate(-33.72 -59.17)"/><path class="cls-1" d="M77,59.2v7.35H76.1c-.43-3.91-1.4-5.44-4.06-5.44H69.38V77.53c0,2.82.78,3.26,4,3.41v.79H62.43v-.79c3.29-.15,4-.68,4-3.41V61.11H63.75c-2.76,0-3.69,1.63-4.1,5.44h-.94V59.2h.78c.28.47.69.63,1.54.63H74.76c.81,0,1.25-.19,1.5-.63Z" transform="translate(-33.72 -59.17)"/><path class="cls-1" d="M106.7,80.94v.79H98.28v-.82c2.54-.06,3.19-.62,2.35-2.91L99,73.62H90.87l-1.5,4.16c-.91,2.48-.19,3,2.12,3.13v.82H84.55v-.79c1.84-.18,2.38-1,3.25-3.34l6.42-17.33,2.65-1.1,6.95,18.74C104.69,80.26,105.7,80.79,106.7,80.94ZM98.63,72.5l-1.79-5a28.43,28.43,0,0,1-1.78-5.88H94.9a30,30,0,0,1-1.84,5.92L91.28,72.5Z" transform="translate(-33.72 -59.17)"/><path class="cls-1" d="M122.34,65a10,10,0,0,1-1.44-2.54l-.13,0a19.21,19.21,0,0,1,.22,3.22V78.07c0,2.31.66,2.56,3.29,2.87v.79h-7.73v-.79c2.41-.15,3-.84,3-3.41v-16c-.84-.75-1.34-.81-3-1v-.75h6L133,73.56a16.34,16.34,0,0,1,2.16,3.5l.16-.06c-.1-1.12-.13-2.13-.13-3.56V63.86c0-2.62-.59-2.94-3.28-3.25v-.78h7.73v.78c-2.51.22-3,.69-3,3.41V81.88h-1.25Z" transform="translate(-33.72 -59.17)"/><path class="cls-1" d="M149.61,80.94c2.41-.09,3-.84,3-3.41V64c0-2.66-.69-3.32-3-3.41v-.78h9c7.67,0,11.86,4.13,11.86,11s-3.88,11-11.64,11h-9.2Zm9.55-.56c5.28,0,8-3.6,8-9.6,0-6.17-2.72-9.61-8.82-9.61h-2.72V78.32c0,1.31.44,2.06,2.1,2.06Z" transform="translate(-33.72 -59.17)"/><path class="cls-1" d="M201.67,80.94v.79h-8.42v-.82c2.54-.06,3.19-.62,2.35-2.91L194,73.62h-8.16l-1.5,4.16c-.91,2.48-.19,3,2.12,3.13v.82h-6.94v-.79c1.85-.18,2.38-1,3.25-3.34l6.42-17.33,2.66-1.1,6.94,18.74C199.67,80.26,200.67,80.79,201.67,80.94ZM193.6,72.5l-1.79-5A28.43,28.43,0,0,1,190,61.67h-.16A30,30,0,0,1,188,67.59l-1.78,4.91Z" transform="translate(-33.72 -59.17)"/><path class="cls-1" d="M211.52,80.94c2.41-.15,3-.84,3-3.41V64c0-2.66-.69-3.25-3-3.41v-.78h9.6c3.76,0,7,1.41,7,5.16s-2.78,5.41-6.44,5.47l-1.16,0v.18l1.16,0c2.84.07,3.63,1.29,5.22,4.38l1.85,3.6A3.61,3.61,0,0,0,232.23,81v.76h-5.16a12.83,12.83,0,0,1-1.6-2.76L224,75.88c-1.22-2.54-2.13-4.79-4.63-4.79h-1.81v6.44c0,2.66.69,3.26,3,3.41v.79h-9ZM219.94,70c4,0,5-2.26,5-5s-1.62-4.13-4.91-4.13h-2.53V70Z" transform="translate(-33.72 -59.17)"/><path class="cls-1" d="M242.08,80.94c2.41-.09,3-.84,3-3.41V64c0-2.66-.69-3.32-3-3.41v-.78h9c7.67,0,11.86,4.13,11.86,11s-3.88,11-11.64,11h-9.2Zm9.54-.56c5.29,0,8-3.6,8-9.6,0-6.17-2.72-9.61-8.82-9.61h-2.72V78.32c0,1.31.44,2.06,2.1,2.06Z" transform="translate(-33.72 -59.17)"/><path class="cls-1" d="M270.07,62.56a2.7,2.7,0,0,1,.23-1.14,2.82,2.82,0,0,1,.62-.92,3.13,3.13,0,0,1,.91-.6,2.94,2.94,0,0,1,2.23,0,3,3,0,0,1,.92.6,2.73,2.73,0,0,1,.62.9,2.82,2.82,0,0,1,.23,1.13,2.82,2.82,0,0,1-1.77,2.65,2.9,2.9,0,0,1-3.14-.6,2.73,2.73,0,0,1-.62-.9A2.61,2.61,0,0,1,270.07,62.56Zm.46,0a2.3,2.3,0,0,0,.19.95,2.25,2.25,0,0,0,.51.77,2.55,2.55,0,0,0,.77.52A2.48,2.48,0,0,0,273,65a2.41,2.41,0,0,0,1.71-.71,2.32,2.32,0,0,0,.52-.78,2.43,2.43,0,0,0,.19-1,2.46,2.46,0,0,0-.71-1.74A2.39,2.39,0,0,0,273,60.1a2.3,2.3,0,0,0-.95.19,2.35,2.35,0,0,0-.77.51,2.29,2.29,0,0,0-.51.78A2.41,2.41,0,0,0,270.53,62.56Zm1.35-1.66h1.21a1.44,1.44,0,0,1,.89.23.87.87,0,0,1,.28.73.8.8,0,0,1-.25.65,1.19,1.19,0,0,1-.62.25l.95,1.46h-.5l-.91-1.42h-.59v1.42h-.46Zm.46,1.48h.9a.88.88,0,0,0,.29-.07.45.45,0,0,0,.2-.16.53.53,0,0,0,.07-.31.54.54,0,0,0-.06-.27.55.55,0,0,0-.18-.16l-.24-.07h-1Z" transform="translate(-33.72 -59.17)"/></svg>
