<?xml version="1.0" encoding="UTF-8"?>
<svg width="162px" height="29px" viewBox="0 0 162 29" version="1.1" xmlns="http://www.w3.org/2000/svg" xmlns:xlink="http://www.w3.org/1999/xlink">
    <title>carallel logo</title>
    <defs>
        <polygon id="path-1" points="2.65648037e-15 0 12.8888889 0 12.8888889 29 2.65648037e-15 29"></polygon>
    </defs>
    <g id="Symbols" stroke="none" stroke-width="1" fill="none" fill-rule="evenodd">
        <g id="Navigation" transform="translate(-86.000000, -28.000000)">
            <g id="carallel-logo" transform="translate(86.000000, 28.000000)">
                <g id="badge">
                    <path d="M17.9222451,0.644444444 C15.8270402,3.45280887 15.0022801,4.18617939 15.7215128,5.9834271 C16.8044782,8.69079291 24.1670707,11.3770545 26.7513688,15.9268913 C27.3396278,16.9628808 27.8347083,18.1571517 28.1924536,19.3333333 C28.7137289,17.845865 29,16.246469 29,14.579615 C29,7.76597725 24.2609976,2.07048456 17.9222451,0.644444444" id="Fill-1" fill="#E77133"></path>
                    <g id="Group-5" transform="translate(8.377778, 0.000000)">
                        <mask id="mask-2" fill="white">
                            <use xlink:href="#path-1"></use>
                        </mask>
                        <g id="Clip-4"></g>
                        <path d="M12.2452454,16.8448244 C10.4039535,12.6077803 6.33778279,10.5587337 4.93167136,7.50372885 C3.5969684,4.60336903 5.26665563,3.01557802 7.54985758,0.0608627704 C7.25225995,0.0298572081 6.95092365,0.0118663263 6.64809189,0 C2.99354807,3.47798196 0.963079783,5.28893647 1.30628912,7.72574399 C1.7156728,10.6387357 7.30983537,13.5199563 5.15113092,19.6540814 C3.80670743,23.4727418 1.56537851,26.0925204 2.65648037e-15,27.5888259 C1.84764763,28.4929634 3.91625028,29.0001531 6.10037765,29.0001531 C7.96522313,29.0001531 9.74445321,28.6273208 11.3748845,27.9570648 C12.377968,25.1187161 13.6969685,20.1861522 12.2452454,16.8448244" id="Fill-3" fill="#E77133" mask="url(#mask-2)"></path>
                    </g>
                    <path d="M8.14373145,14.8644663 C8.47622119,11.94301 6.062648,10.7085972 6.55987128,7.43677838 C6.88556008,5.29369535 8.69876261,3.66725518 12.8888889,0 C5.65232544,0.719285023 0,6.83945743 0,14.2830537 C0,17.0870911 0.804776283,19.7009857 2.19103177,21.9111111 C4.36543905,20.7043486 7.74474378,18.3627898 8.14373145,14.8644663" id="Fill-6" fill="#E77133"></path>
                </g>
                <g id="carallel" transform="translate(37.000000, 0.000000)" fill="#2F4858">
                    <path d="M27.5945864,21.8517329 C27.4789433,22.2965062 27.4021014,22.703759 27.3636805,23.0742731 C26.6336831,24.1111654 25.7880426,24.9256711 24.9043615,24.9256711 C23.9430778,24.9256711 22.6748072,24.5184182 22.6748072,22.2965062 C22.6748072,17.2593906 24.9808229,11.3702489 27.8635328,11.3702489 C28.4014256,11.3702489 29.1318034,11.5187672 29.7465381,12.0370179 L27.5945864,21.8517329 Z M52.6526316,11.6297651 C52.6526316,10.2219679 51.6141256,9.25933474 49.8851844,9.25933474 C48.2711256,9.25933474 46.7335281,10.0738404 45.3496143,11.1111235 L45.7733856,9.25933474 L40.2388717,9.25933474 L37.1157458,23.4545581 C36.339339,24.0052484 35.5732031,24.4074203 34.8964624,24.4074203 C33.3592454,24.4074203 32.9750362,23.8149105 32.9750362,23.000014 C32.9750362,22.6670203 33.0518781,22.2593766 33.1287199,21.8517329 L35.8957866,9.25933474 L30.3616532,9.25933474 L30.1307473,10.2219679 C29.4391708,9.66658757 28.4786479,9.29607348 27.5557851,9.29607348 C20.3330333,9.29607348 17.7938293,16.032942 17.5138511,22.1319635 C15.9743516,23.8145196 13.6006238,24.6665457 11.1074487,24.6665457 C6.95646818,24.6665457 6.0339858,22.5923703 6.0339858,17.7405117 C6.0339858,11.1478623 9.07037936,1.74040005 13.7976736,1.74040005 C16.257373,1.74040005 16.4494776,3.77744588 16.4494776,4.37034659 C16.4494776,5.29624098 15.7194802,7.14802976 14.7581965,7.40715512 C15.4885743,8.22205162 16.3338345,8.37017909 16.9493299,8.37017909 C18.909177,8.37017909 19.6391744,6.92603397 19.6391744,4.96285646 C19.6391744,1.3702768 16.5263194,0 12.9520331,0 C2.72902623,0 0,10.4810932 0,18.5554082 C0,26.1478204 4.49714917,27.9996092 8.41684338,27.9996092 C11.2873803,27.9996092 15.0990395,27.289848 17.5678686,24.2893874 C17.8706711,26.1783057 19.1145958,28 22.2521771,28 C24.5966138,28 26.3263158,26.4815957 27.4789433,24.9628006 C27.9787956,26.8892394 29.6696963,27.7780042 32.1678166,27.7780042 C33.5117878,27.7780042 35.1254663,26.7856674 36.6569773,25.539677 L36.1647331,27.7780042 L41.6988665,27.7780042 L44.8885634,13.2591672 C45.7733856,12.4814003 46.3877399,12.0737566 47.5407478,12.0737566 C48.6937556,12.0737566 47.6175896,14.5184461 49.7695413,14.5184461 C51.652927,14.5184461 52.6526316,12.9257827 52.6526316,11.6297651 L52.6526316,11.6297651 Z" id="Fill-8"></path>
                    <path d="M60.8129423,21.8756457 C60.6975408,22.3186891 60.6208595,22.724358 60.5828984,23.093431 C59.8540466,24.1262904 59.0105524,24.9376282 58.1283379,24.9376282 C57.1694422,24.9376282 55.9038213,24.5319593 55.9038213,22.3186891 C55.9038213,17.3011646 58.2046396,11.4349278 61.0813268,11.4349278 C61.6180958,11.4349278 62.3469477,11.5828685 62.9607776,12.0991036 L60.8129423,21.8756457 Z M101.656738,10.9552886 C102.807716,10.9552886 102.99942,12.2470442 102.99942,13.0213968 C102.961079,15.6407253 100.468178,18.5555457 96.9396997,18.5921416 C97.7448533,15.1241009 99.5092822,10.9552886 101.656738,10.9552886 L101.656738,10.9552886 Z M115.578947,1.95348837 L109.902254,2.69124512 L105.996064,20.455026 C104.597579,23.0868126 101.494644,25.122554 99.6626448,25.122554 C98.1666004,25.122554 96.5179527,24.384408 96.5179527,21.9492267 C96.5179527,21.506962 96.5559137,20.9537418 96.632595,20.3631471 C100.276095,19.920493 105.300238,17.3377604 105.300238,12.8368603 C105.300238,10.2541277 103.536568,9.00013591 100.391876,9.00013591 C93.4112216,9.00013591 91.3400675,17.2271942 91.3400675,21.9126309 C91.3400675,22.3650179 91.3852412,22.8061146 91.4657186,23.2324174 C90.5800876,23.9004863 89.6940771,24.4213931 88.9242273,24.4213931 C87.4278033,24.4213931 87.0064358,23.8677836 87.0064358,23.0560565 C87.0064358,22.7609538 87.0827375,22.4292553 87.198139,21.8756457 L91.608452,1.95348837 L85.9321385,2.69124512 L81.6751881,21.8756457 C81.6383659,22.0426629 81.6205242,22.1917716 81.5928127,22.3502238 C80.3685693,23.3776328 79.0460069,24.4213931 77.9553863,24.4213931 C76.4597216,24.4213931 76.0375949,23.8677836 76.0375949,23.0560565 C76.0375949,22.7609538 76.1146558,22.4292553 76.2296777,21.8756457 L80.6399907,1.95348837 L74.9640568,2.69124512 L70.7071064,21.8756457 C70.590566,22.4086214 70.5324856,22.8855354 70.5043944,23.3332506 C69.6646964,23.9514869 68.8299332,24.4213931 68.0995629,24.4213931 C66.5655575,24.4213931 66.182151,23.8311877 66.182151,23.0194607 C66.182151,22.6877621 66.2588323,22.2817039 66.3358932,21.8756457 L69.0964197,9.33222378 L63.574228,9.33222378 L63.3441841,10.2911129 C62.6540525,9.73789266 61.6947771,9.36881963 60.7746017,9.36881963 C53.1038154,9.36881963 50.7263158,16.9686874 50.7263158,23.3145634 C50.7263158,25.4912377 51.8002335,28 55.4820742,28 C57.8212332,28 59.5469418,26.4875013 60.6975408,24.9746134 C61.1963488,26.8935595 62.8837167,27.7788676 65.3766179,27.7788676 C66.9398533,27.7788676 68.8675146,26.4376687 70.6053708,24.9162157 C71.0590052,26.8740937 72.7304295,27.7784783 75.2324413,27.7784783 C77.1008834,27.7784783 79.4931878,25.864204 81.4561529,24.0133884 C81.5666196,26.5988462 83.3420571,27.7784783 86.2009027,27.7784783 C87.8932056,27.7784783 90.0148478,26.2083607 91.857856,24.5370204 C92.6690834,26.438058 94.4213647,27.7784783 97.016381,27.7784783 C100.479566,27.7784783 103.32019,25.9506324 105.46423,23.5516577 C105.462711,23.6069408 105.453601,23.6657278 105.453601,23.7202322 C105.453601,26.0448473 106.64254,27.7788676 109.365865,27.7788676 C110.669447,27.7788676 112.280133,27.557346 113.354051,24.384408 C113.047326,24.4953635 112.625199,24.4953635 112.356815,24.4953635 C111.283277,24.4953635 110.976552,23.9051581 110.976552,23.1300268 C110.976552,22.724358 111.052853,22.3186891 111.167875,21.8756457 L115.578947,1.95348837 Z" id="Fill-10"></path>
                    <path d="M120.99,10.03 C121.643333,10.03 122.24,9.87333333 122.78,9.56 C123.32,9.24666667 123.746667,8.81833333 124.06,8.275 C124.373333,7.73166667 124.53,7.13333333 124.53,6.48 C124.53,5.82666667 124.376667,5.23166667 124.07,4.695 C123.763333,4.15833333 123.341667,3.73666667 122.805,3.43 C122.268333,3.12333333 121.67,2.97 121.01,2.97 C120.35,2.97 119.75,3.12666667 119.21,3.44 C118.67,3.75333333 118.245,4.18 117.935,4.72 C117.625,5.26 117.47,5.85333333 117.47,6.5 C117.47,7.14666667 117.625,7.74 117.935,8.28 C118.245,8.82 118.668333,9.24666667 119.205,9.56 C119.741667,9.87333333 120.336667,10.03 120.99,10.03 Z M120.99,9.48 C120.436667,9.48 119.935,9.34833333 119.485,9.085 C119.035,8.82166667 118.681667,8.46333333 118.425,8.01 C118.168333,7.55666667 118.04,7.05333333 118.04,6.5 C118.04,5.94666667 118.168333,5.44333333 118.425,4.99 C118.681667,4.53666667 119.036667,4.17833333 119.49,3.915 C119.943333,3.65166667 120.45,3.52 121.01,3.52 C121.57,3.52 122.073333,3.65 122.52,3.91 C122.966667,4.17 123.316667,4.525 123.57,4.975 C123.823333,5.425 123.95,5.92666667 123.95,6.48 C123.95,7.03333333 123.82,7.53833333 123.56,7.995 C123.3,8.45166667 122.945,8.81333333 122.495,9.08 C122.045,9.34666667 121.543333,9.48 120.99,9.48 Z M120.38,8.47 L120.38,7.27 L121.27,7.27 L122.05,8.47 L122.91,8.47 L122.03,7.12 C122.283333,7.01333333 122.478333,6.85666667 122.615,6.65 C122.751667,6.44333333 122.82,6.19333333 122.82,5.9 C122.82,5.48 122.671667,5.14666667 122.375,4.9 C122.078333,4.65333333 121.673333,4.53 121.16,4.53 L121.16,4.53 L119.52,4.53 L119.52,8.47 L120.38,8.47 Z M121.11,6.6 L120.37,6.6 L120.37,5.21 L121.11,5.21 C121.39,5.21 121.606667,5.27 121.76,5.39 C121.913333,5.51 121.99,5.68 121.99,5.9 C121.99,6.12 121.913333,6.29166667 121.76,6.415 C121.606667,6.53833333 121.39,6.6 121.11,6.6 L121.11,6.6 Z" id="®" fill-rule="nonzero"></path>
                </g>
            </g>
        </g>
    </g>
</svg>